<svg xmlns="http://www.w3.org/2000/svg" width="190mm" height="188mm" viewBox="0 0 190 188">
<title>Cuboid fold sheet</title>
<rect x="0" y="0" width="190" height="188" fill="#ffffff"/>
<rect x="60" y="3" width="70" height="45" fill="#ffffff"/>
<rect x="15" y="48" width="45" height="40" fill="#ffffff"/>
<rect x="60" y="48" width="70" height="40" fill="#ffffff"/>
<rect x="130" y="48" width="45" height="40" fill="#ffffff"/>
<rect x="60" y="88" width="70" height="45" fill="#ffffff"/>
<rect x="60" y="133" width="70" height="40" fill="#ffffff"/>
<polyline points="15,48 20,36 55,36 60,48" fill="#ffffff" stroke="#3d1010" stroke-width="0.9" stroke-linejoin="round"/>
<line x1="15" y1="48" x2="60" y2="48" stroke="#6B1A1A" stroke-width="0.6" stroke-dasharray="3.2 2.2" stroke-linecap="round"/>
<polyline points="60,88 55,100 20,100 15,88" fill="#ffffff" stroke="#3d1010" stroke-width="0.9" stroke-linejoin="round"/>
<line x1="60" y1="88" x2="15" y2="88" stroke="#6B1A1A" stroke-width="0.6" stroke-dasharray="3.2 2.2" stroke-linecap="round"/>
<polyline points="15,88 3,83 3,53 15,48" fill="#ffffff" stroke="#3d1010" stroke-width="0.9" stroke-linejoin="round"/>
<line x1="15" y1="88" x2="15" y2="48" stroke="#6B1A1A" stroke-width="0.6" stroke-dasharray="3.2 2.2" stroke-linecap="round"/>
<polyline points="130,48 135,36 170,36 175,48" fill="#ffffff" stroke="#3d1010" stroke-width="0.9" stroke-linejoin="round"/>
<line x1="130" y1="48" x2="175" y2="48" stroke="#6B1A1A" stroke-width="0.6" stroke-dasharray="3.2 2.2" stroke-linecap="round"/>
<polyline points="175,88 170,100 135,100 130,88" fill="#ffffff" stroke="#3d1010" stroke-width="0.9" stroke-linejoin="round"/>
<line x1="175" y1="88" x2="130" y2="88" stroke="#6B1A1A" stroke-width="0.6" stroke-dasharray="3.2 2.2" stroke-linecap="round"/>
<polyline points="175,48 187,53 187,83 175,88" fill="#ffffff" stroke="#3d1010" stroke-width="0.9" stroke-linejoin="round"/>
<line x1="175" y1="48" x2="175" y2="88" stroke="#6B1A1A" stroke-width="0.6" stroke-dasharray="3.2 2.2" stroke-linecap="round"/>
<polyline points="130,173 125,185 65,185 60,173" fill="#ffffff" stroke="#3d1010" stroke-width="0.9" stroke-linejoin="round"/>
<line x1="130" y1="173" x2="60" y2="173" stroke="#6B1A1A" stroke-width="0.6" stroke-dasharray="3.2 2.2" stroke-linecap="round"/>
<line x1="60" y1="3" x2="130" y2="3" stroke="#3d1010" stroke-width="0.9" stroke-linecap="square"/>
<line x1="60" y1="3" x2="60" y2="48" stroke="#3d1010" stroke-width="0.9" stroke-linecap="square"/>
<line x1="130" y1="3" x2="130" y2="48" stroke="#3d1010" stroke-width="0.9" stroke-linecap="square"/>
<line x1="60" y1="88" x2="60" y2="133" stroke="#3d1010" stroke-width="0.9" stroke-linecap="square"/>
<line x1="130" y1="88" x2="130" y2="133" stroke="#3d1010" stroke-width="0.9" stroke-linecap="square"/>
<line x1="60" y1="133" x2="60" y2="173" stroke="#3d1010" stroke-width="0.9" stroke-linecap="square"/>
<line x1="130" y1="133" x2="130" y2="173" stroke="#3d1010" stroke-width="0.9" stroke-linecap="square"/>
<line x1="60" y1="48" x2="130" y2="48" stroke="#6B1A1A" stroke-width="0.6" stroke-dasharray="3.2 2.2" stroke-linecap="round"/>
<line x1="60" y1="88" x2="130" y2="88" stroke="#6B1A1A" stroke-width="0.6" stroke-dasharray="3.2 2.2" stroke-linecap="round"/>
<line x1="60" y1="133" x2="130" y2="133" stroke="#6B1A1A" stroke-width="0.6" stroke-dasharray="3.2 2.2" stroke-linecap="round"/>
<line x1="60" y1="48" x2="60" y2="88" stroke="#6B1A1A" stroke-width="0.6" stroke-dasharray="3.2 2.2" stroke-linecap="round"/>
<line x1="130" y1="48" x2="130" y2="88" stroke="#6B1A1A" stroke-width="0.6" stroke-dasharray="3.2 2.2" stroke-linecap="round"/>
<text x="95" y="30.09" font-family="Verdana,Arial,sans-serif" font-size="13.5" font-weight="700" fill="#6B1A1A" text-anchor="middle">1</text>
<text x="37.5" y="72.08" font-family="Verdana,Arial,sans-serif" font-size="12" font-weight="700" fill="#6B1A1A" text-anchor="middle">2</text>
<text x="95" y="72.08" font-family="Verdana,Arial,sans-serif" font-size="12" font-weight="700" fill="#6B1A1A" text-anchor="middle">3</text>
<text x="152.5" y="72.08" font-family="Verdana,Arial,sans-serif" font-size="12" font-weight="700" fill="#6B1A1A" text-anchor="middle">4</text>
<text x="95" y="115.09" font-family="Verdana,Arial,sans-serif" font-size="13.5" font-weight="700" fill="#6B1A1A" text-anchor="middle">5</text>
<text x="95" y="157.08" font-family="Verdana,Arial,sans-serif" font-size="12" font-weight="700" fill="#6B1A1A" text-anchor="middle">6</text>
</svg>